<svg fill="none" height="512" viewBox="0 0 512 512" width="512" xmlns="http://www.w3.org/2000/svg" xmlns:xlink="http://www.w3.org/1999/xlink"><clipPath id="a"><path d="m0 0h512v512h-512z"/></clipPath><g clip-path="url(#a)"><path d="m512 0h-512v512h512z" fill="#fdf6e3"/><path d="m160 80h112.8c17 0 33.3 6.7 45.3 18.7l75.3 75.3c12 12 18.7 28.3 18.7 45.3v212.7c0 17.7-14.3 32-32 32h-220.1c-17.7 0-32-14.3-32-32v-320c0-17.7 14.3-32 32-32z" stroke="#586e75" stroke-linecap="round" stroke-linejoin="round" stroke-width="32"/><path d="m272 80v96c0 17.7 14.3 32 32 32h96" stroke="#586e75" stroke-linecap="round" stroke-linejoin="round" stroke-width="32"/><path d="m155.155 337v-80h31.563c6.067 0 11.237 1.159 15.508 3.477 4.27 2.291 7.526 5.481 9.765 9.57 2.266 4.062 3.399 8.75 3.399 14.062 0 5.313-1.146 10-3.438 14.063-2.292 4.062-5.612 7.226-9.961 9.492-4.323 2.266-9.557 3.398-15.703 3.398h-20.117v-13.554h17.383c3.255 0 5.937-.56 8.047-1.68 2.135-1.146 3.724-2.721 4.765-4.726 1.068-2.032 1.602-4.362 1.602-6.993 0-2.656-.534-4.974-1.602-6.953-1.041-2.005-2.63-3.554-4.765-4.648-2.136-1.12-4.844-1.68-8.125-1.68h-11.407v66.172zm99.58 0h-28.359v-80h28.594c8.047 0 14.974 1.602 20.781 4.805 5.807 3.177 10.273 7.747 13.398 13.711 3.151 5.963 4.727 13.099 4.727 21.406 0 8.333-1.576 15.495-4.727 21.484-3.125 5.99-7.617 10.586-13.476 13.789-5.833 3.203-12.813 4.805-20.938 4.805zm-11.445-14.492h10.742c5 0 9.206-.886 12.617-2.656 3.438-1.797 6.016-4.571 7.735-8.321 1.745-3.776 2.617-8.646 2.617-14.609 0-5.912-.872-10.742-2.617-14.492-1.719-3.75-4.284-6.511-7.696-8.282-3.411-1.77-7.617-2.656-12.617-2.656h-10.781zm63.115 14.492v-80h52.969v13.945h-36.055v19.063h32.539v13.945h-32.539v33.047z" fill="#b58900"/></g></svg>